PathFileType	4	(X/Y/Z)	/Users/itak/Documents/Research/Walk-IL/dataset/trc/00307_00010.trc
DataRate	CameraRate	NumFrames	NumMarkers	Units	OrigDataRate	OrigDataStartFrame	OrigNumFrames
100.000000	100.000000	4	57	mm	100.000000	445	509
Frame#	Time	RPSI			LPSI			L3			STRN			T10			C7			CLAV			RBAK			LBAK			LSHO			LUPA			LAEL			LAOL			LWTS			LWPS			LFRA			LIFD			LHPS			RSHO			RUPA			RAEL			RAOL			RWTS			RFRA			RIFD			RHTS			RHPS			RBHD			LFHD			RFHD			LBHD			LHIP			RHIP			RASI			LASI			LKNE			LTHI			LANK			LTIP			LTOE			LMT1			LMT5			LHEE			RKNE			RTHI			RANK			RTIP			RTOE			RMT1			RMT5			RHEE			LHTS			RWPS			*53			*54			*55			*56			
		X1	Y1	Z1	X2	Y2	Z2	X3	Y3	Z3	X4	Y4	Z4	X5	Y5	Z5	X6	Y6	Z6	X7	Y7	Z7	X8	Y8	Z8	X9	Y9	Z9	X10	Y10	Z10	X11	Y11	Z11	X12	Y12	Z12	X13	Y13	Z13	X14	Y14	Z14	X15	Y15	Z15	X16	Y16	Z16	X17	Y17	Z17	X18	Y18	Z18	X19	Y19	Z19	X20	Y20	Z20	X21	Y21	Z21	X22	Y22	Z22	X23	Y23	Z23	X24	Y24	Z24	X25	Y25	Z25	X26	Y26	Z26	X27	Y27	Z27	X28	Y28	Z28	X29	Y29	Z29	X30	Y30	Z30	X31	Y31	Z31	X32	Y32	Z32	X33	Y33	Z33	X34	Y34	Z34	X35	Y35	Z35	X36	Y36	Z36	X37	Y37	Z37	X38	Y38	Z38	X39	Y39	Z39	X40	Y40	Z40	X41	Y41	Z41	X42	Y42	Z42	X43	Y43	Z43	X44	Y44	Z44	X45	Y45	Z45	X46	Y46	Z46	X47	Y47	Z47	X48	Y48	Z48	X49	Y49	Z49	X50	Y50	Z50	X51	Y51	Z51	X52	Y52	Z52	X53	Y53	Z53	X54	Y54	Z54	X55	Y55	Z55	X56	Y56	Z56	X57	Y57	Z57	

446	4.45	133.3610687255859	999.08837890625	978.3049926757812	307.6747741699219	994.6717529296875	1001.695373535156	224.6829071044922	1072.7060546875	1006.609130859375	204.2365112304688	1252.054565429688	1255.640625	235.4425354003906	1187.342163085938	995.1607666015625	259.2700805664062	1430.913208007812	1039.403076171875	222.8232574462891	1351.854370117188	1193.857299804688	183.2058258056641	1298.607666015625	977.2915649414062	363.5866394042969	1388.124145507812	1043.64453125	398.8458557128906	1395.586791992188	1141.03271484375	472.0911254882812	1276.415161132812	1142.926147460938	488.1123352050781	1081.21240234375	1196.576293945312	438.8658142089844	1050.628295898438	1131.3994140625	427.6868591308594	897.0952758789062	1334.27490234375	493.4402770996094	877.068603515625	1314.744506835938	493.4873962402344	987.6242065429688	1241.387817382812	428.7499389648438	728.6397705078125	1405.666870117188	490.68798828125	796.969482421875	1350.184326171875	90.59824371337891	1417.726928710938	1080.676147460938	23.49032783508301	1362.843505859375	1064.498168945312	-41.32439422607422	1101.835693359375	1041.61572265625	51.19841766357422	1088.239379882812	1026.7373046875	-13.96119022369385	885.2005615234375	1165.0654296875	-61.98323822021484	1035.947631835938	1067.513305664062	-20.34554862976074	701.1016845703125	1188.9580078125	-39.59322357177734	773.697265625	1203.495239257812	-85.33557891845703	769.7113037109375	1149.265258789062	192.0513153076172	1586.526000976562	1043.659912109375	300.0187683105469	1639.502807617188	1219.34228515625	207.6041107177734	1643.404052734375	1209.47021484375	337.0572509765625	1571.086303710938	1061.927001953125	381.2757568359375	945.9093017578125	1075.376953125	19.04413604736328	955.1782836914062	1068.279052734375	76.52946472167969	964.3557739257812	1194.641357421875	328.845458984375	958.010986328125	1213.650390625	337.8106079101562	486.5360717773438	1164.187255859375	364.5835571289062	628.0531005859375	1154.598266601562	306.5616455078125	46.62614440917969	1092.929931640625	330.8322448730469	258.6329956054688	1127.457885742188	222.7663726806641	38.10079574584961	1294.853759765625	192.2064514160156	30.98745346069336	1217.788818359375	304.0235900878906	42.50707244873047	1216.69921875	252.1543426513672	40.57782745361328	1041.269287109375	0.9557903409004211	496.8770751953125	1190.124877929688	-0.3387980461120605	758.2463989257812	1155.992065429688	13.00968742370605	57.28615188598633	1071.384521484375	3.795628070831299	371.5853881835938	1184.975341796875	41.47200012207031	67.33805847167969	1265.985107421875	88.5458984375	56.68366241455078	1216.705322265625	-20.42437362670898	44.93925094604492	1171.102416992188	68.13010406494141	58.0091552734375	1024.814819335938	445.218505859375	816.3927001953125	1394.115600585938	-82.45003509521484	879.3460693359375	1114.535400390625	nan	nan	nan	nan	nan	nan	nan	nan	nan	nan	nan	nan	
447	4.46	132.9483337402344	999.2462768554688	980.4078979492188	307.2846984863281	994.6784057617188	1003.584533691406	224.1846618652344	1072.535400390625	1008.614624023438	204.6471557617188	1251.989013671875	1257.52197265625	234.746337890625	1187.295166015625	996.8680419921875	258.6772766113281	1430.864501953125	1041.037963867188	222.9187469482422	1351.720336914062	1195.555786132812	182.3479766845703	1298.551025390625	979.2313232421875	363.024169921875	1388.123657226562	1044.8427734375	398.6885070800781	1395.613525390625	1142.076171875	471.8890075683594	1276.354736328125	1143.713134765625	487.66650390625	1081.103515625	1197.389282226562	438.3589782714844	1050.598388671875	1132.244506835938	426.9454040527344	897.2105712890625	1335.217529296875	492.6625061035156	877.0225830078125	1315.73388671875	492.892822265625	987.5449829101562	1242.274169921875	427.6746520996094	728.7911376953125	1406.820190429688	489.9076843261719	797.152587890625	1351.19775390625	90.17510986328125	1417.584350585938	1083.076171875	22.99312019348145	1362.63671875	1067.266357421875	-41.74075317382812	1101.579223632812	1044.750610351562	50.71462249755859	1088.066162109375	1029.328491210938	-13.80098152160645	884.6357421875	1167.571411132812	-62.23907470703125	1035.627563476562	1070.646362304688	-19.88065338134766	700.4631958007812	1190.927612304688	-39.18994140625	772.9817504882812	1205.769287109375	-85.06931304931641	769.10302734375	1151.645874023438	191.5315093994141	1586.467163085938	1045.525634765625	299.5481872558594	1639.468627929688	1221.161499023438	207.1551208496094	1643.344848632812	1211.328735351562	336.5782470703125	1571.122314453125	1063.716186523438	381.2779846191406	946.0465087890625	1077.1708984375	18.84030151367188	955.1826782226562	1070.519287109375	76.5284423828125	964.3308715820312	1196.795776367188	328.7524719238281	958.0462036132812	1215.4921875	337.7576293945312	486.4648742675781	1164.62060546875	364.4921264648438	627.9886474609375	1155.553344726562	306.5416870117188	46.61740875244141	1092.901000976562	330.7995300292969	258.7242431640625	1127.537719726562	222.7921905517578	38.12950134277344	1294.824951171875	192.2232513427734	31.00273704528809	1217.790771484375	304.0300598144531	42.49663162231445	1216.7177734375	252.1338043212891	40.57638931274414	1041.26611328125	2.918674945831299	495.5572204589844	1188.162231445312	-0.2873199880123138	757.522705078125	1156.7353515625	12.86087417602539	53.48820495605469	1080.147338867188	4.855936527252197	370.5466003417969	1185.411865234375	40.31371307373047	67.24192810058594	1274.880859375	87.58496856689453	55.22846603393555	1226.012817382812	-21.17687606811523	43.57465744018555	1180.005615234375	68.29141235351562	52.81852340698242	1033.7080078125	444.3084411621094	816.57373046875	1395.172973632812	-82.47216796875	878.8851928710938	1117.276245117188	nan	nan	nan	nan	nan	nan	nan	nan	nan	nan	nan	nan	
448	4.47	132.4856262207031	999.3401489257812	982.4385986328125	306.8470764160156	994.6322021484375	1005.442077636719	223.5879516601562	1072.31884765625	1010.560668945312	205.0242919921875	1251.902587890625	1259.333129882812	233.9330749511719	1187.215942382812	998.5116577148438	257.98388671875	1430.793334960938	1042.570068359375	222.9864349365234	1351.591674804688	1197.183349609375	181.3318328857422	1298.471069335938	981.112548828125	362.3535461425781	1388.098754882812	1045.903076171875	398.476318359375	1395.616821289062	1142.962768554688	471.6070251464844	1276.247436523438	1144.277221679688	487.1327209472656	1080.919067382812	1197.909912109375	437.6650695800781	1050.536010742188	1132.835205078125	426.1346130371094	897.1675415039062	1335.81689453125	491.813232421875	876.8343505859375	1316.320678710938	492.2068176269531	987.3659057617188	1242.823608398438	426.5453491210938	728.75439453125	1407.519653320312	489.0675354003906	797.168701171875	1351.73779296875	89.67047882080078	1417.409912109375	1085.448974609375	22.40174293518066	1362.393798828125	1070.0595703125	-42.26530075073242	1101.27880859375	1048.018310546875	50.09141540527344	1087.848388671875	1031.95556640625	-13.64788341522217	883.9669799804688	1170.070190429688	-62.56198120117188	1035.25	1073.92138671875	-19.41112327575684	699.710693359375	1192.745849609375	-38.77381896972656	772.117919921875	1207.9453125	-84.86575317382812	768.419921875	1154.006225585938	190.9449615478516	1586.406127929688	1047.302001953125	299.0169677734375	1639.417236328125	1222.897583007812	206.6422882080078	1643.272216796875	1213.115844726562	336.0144653320312	1571.155151367188	1065.407104492188	381.194580078125	946.2013549804688	1078.950805664062	18.5682315826416	955.121337890625	1072.6767578125	76.48203277587891	964.2786865234375	1198.852172851562	328.5739440917969	958.0990600585938	1217.319946289062	337.6507873535156	486.4103393554688	1165.09765625	364.3576965332031	627.9292602539062	1156.54443359375	306.5275268554688	46.613037109375	1092.884887695312	330.7224426269531	258.792724609375	1127.626953125	222.8159027099609	38.15786743164062	1294.798217773438	192.2360992431641	31.01416969299316	1217.793334960938	304.0339965820312	42.49008178710938	1216.732421875	252.1196746826172	40.57534027099609	1041.262451171875	4.832328319549561	494.3522338867188	1186.370361328125	-0.3215553164482117	756.7564086914062	1157.476196289062	12.78402328491211	50.52822494506836	1087.639038085938	5.930733203887939	369.6113586425781	1185.82470703125	39.61322402954102	66.65478515625	1282.530883789062	86.98413848876953	53.70003890991211	1233.887817382812	-21.63821983337402	42.39746856689453	1187.603271484375	68.44307708740234	48.66374588012695	1041.318725585938	443.3889465332031	816.5759887695312	1395.849609375	-82.56413269042969	878.3595581054688	1120.065673828125	nan	nan	nan	nan	nan	nan	nan	nan	nan	nan	nan	nan	
449	4.48	131.9773712158203	999.3726806640625	984.39208984375	306.3674621582031	994.5424194335938	1007.262451171875	222.8985443115234	1072.061889648438	1012.442810058594	205.3565979003906	1251.804321289062	1261.071044921875	233.0205230712891	1187.104614257812	1000.090698242188	257.1965637207031	1430.7041015625	1044.000366210938	223.0211944580078	1351.486450195312	1198.748413085938	180.1768646240234	1298.362060546875	982.9331665039062	361.5847778320312	1388.0537109375	1046.833984375	398.2089538574219	1395.598876953125	1143.70703125	471.2408752441406	1276.09423828125	1144.635009765625	486.5193481445312	1080.658935546875	1198.149536132812	436.7891235351562	1050.441162109375	1133.17919921875	425.2557678222656	896.9581298828125	1336.080078125	490.89013671875	876.5018310546875	1316.510131835938	491.43212890625	987.0850830078125	1243.044067382812	425.3679809570312	728.52880859375	1407.760131835938	488.1559448242188	796.992919921875	1351.815673828125	89.09015655517578	1417.200927734375	1087.772583007812	21.72577476501465	1362.111694335938	1072.84912109375	-42.89633560180664	1100.934448242188	1051.414428710938	49.33073043823242	1087.584106445312	1034.609985351562	-13.48984241485596	883.1986694335938	1172.55712890625	-62.95036315917969	1034.8134765625	1077.330322265625	-18.95588874816895	698.8511352539062	1194.431518554688	-38.3437614440918	771.116455078125	1210.028076171875	-84.73552703857422	767.676513671875	1156.37109375	190.2886657714844	1586.357543945312	1048.995971679688	298.4309997558594	1639.35595703125	1224.545532226562	206.0693817138672	1643.192504882812	1214.836547851562	335.3664245605469	1571.197509765625	1066.996826171875	381.0285949707031	946.3628540039062	1080.7109375	18.22887420654297	955.003662109375	1074.746704101562	76.37857818603516	964.1913452148438	1200.800537109375	328.3129577636719	958.15869140625	1219.128051757812	337.4918212890625	486.3732299804688	1165.604736328125	364.1809387207031	627.8816528320312	1157.546508789062	306.5233459472656	46.61247634887695	1092.88037109375	330.6123352050781	258.8434143066406	1127.722900390625	222.8406219482422	38.18749237060547	1294.77001953125	192.2476959228516	31.02349472045898	1217.795776367188	304.0369567871094	42.48728561401367	1216.742919921875	252.1160583496094	40.57629013061523	1041.258178710938	6.627190589904785	493.29296875	1184.881591796875	-0.4117221534252167	755.9658203125	1158.23095703125	12.78450489044189	48.37057495117188	1093.738647460938	7.022640228271484	368.7726135253906	1186.282348632812	39.39702606201172	65.51862335205078	1288.870483398438	86.76946258544922	52.07706451416016	1240.242797851562	-21.77972030639648	41.37144470214844	1193.8017578125	68.56884002685547	45.51677322387695	1047.51220703125	442.4526062011719	816.3856811523438	1396.135986328125	-82.72603607177734	877.7788696289062	1122.915405273438	nan	nan	nan	nan	nan	nan	nan	nan	nan	nan	nan	nan	
